# xmcd CD database file generated by Grip 3.3.1
# 
# Track frame offsets:
#       150
#       15582
#       33190
#       51247
#       73530
#       96277
#       107867
#       124310
#       141090
#       163142
#       180217
# 
# Disc length: 2660 seconds
# 
# Revision: 3
# Processed by: cddbd v1.5.2PL0 Copyright (c) Steve Scherf et al.
# Submitted via: Grip 3.3.1
# 
DISCID=910a620b
DTITLE=Bachelors From Prague - Birth of the Fool
DYEAR=1989
DGENRE=Jazz
TTITLE0=Strength in Numbers
TTITLE1=Trouble
TTITLE2=Flavour of the Month
TTITLE3=It's a Lie
TTITLE4=Uneasy
TTITLE5=The Irvin Rockman Affair
TTITLE6=Bohemian in the Sun
TTITLE7=Theory of Relativity
TTITLE8=Ahead of Myself
TTITLE9=In September
TTITLE10=Get Smart
EXTD=
EXTT0=
EXTT1=
EXTT2=
EXTT3=
EXTT4=
EXTT5=
EXTT6=
EXTT7=
EXTT8=
EXTT9=
EXTT10=
PLAYORDER=
